<svg width="93" height="23" viewBox="0 0 93 23" fill="none" xmlns="http://www.w3.org/2000/svg">
<path d="M6.6571 0C2.98565 0 0 2.96539 0 6.60991V16.1674C0 19.8119 2.98565 22.7756 6.6571 22.7756H16.3429C20.0143 22.7756 23 19.8119 23 16.1674V6.60991C23 2.96539 20.0143 0 16.3429 0H6.6571ZM6.6571 1.95796H16.3429C18.9559 1.95796 21.0292 4.01607 21.0292 6.60991V16.1674C21.0292 18.7612 18.9559 20.8177 16.3429 20.8177H6.6571C4.04408 20.8177 1.97241 18.7612 1.97241 16.1674V6.60991C1.97241 4.01607 4.04408 1.95796 6.6571 1.95796ZM17.6727 3.9159C16.9107 3.9159 16.2934 4.52867 16.2934 5.28498C16.2934 6.04132 16.9107 6.65407 17.6727 6.65407C18.4346 6.65407 19.0519 6.04132 19.0519 5.28498C19.0519 4.52867 18.4346 3.9159 17.6727 3.9159ZM11.5 5.52379C8.24893 5.52379 5.59264 8.16061 5.59264 11.3878C5.59264 14.615 8.24893 17.2518 11.5 17.2518C14.7511 17.2518 17.409 14.615 17.409 11.3878C17.409 8.16061 14.7511 5.52379 11.5 5.52379ZM11.5 7.48175C13.6853 7.48175 15.4366 9.21858 15.4366 11.3878C15.4366 13.5571 13.6853 15.2939 11.5 15.2939C9.31472 15.2939 7.56504 13.5571 7.56504 11.3878C7.56504 9.21858 9.31472 7.48175 11.5 7.48175Z" fill="#5C5C50"/>
<path d="M49.8317 0C46.6956 0 44.5478 1.72907 44.5478 4.90555V7.64313H41V11.3558H44.5478V20.8777H48.7888V11.3558H52.3267L52.8581 7.64313H48.7888V5.27235C48.7888 4.19775 49.1197 3.46521 50.8251 3.46521H53V0.146122C52.6238 0.10089 51.3339 0 49.8317 0Z" fill="#5C5C50"/>
<path d="M93 4.02175C92.191 4.36479 91.321 4.59664 90.4081 4.70109C91.3398 4.16716 92.0552 3.32212 92.3922 2.31539C91.5202 2.80975 90.5546 3.16833 89.526 3.36162C88.7032 2.52374 87.5301 2 86.232 2C83.7393 2 81.7189 3.93056 81.7189 6.31213C81.7189 6.65023 81.7584 6.97945 81.8357 7.29486C78.0846 7.11526 74.759 5.39797 72.533 2.78929C72.1444 3.4259 71.9219 4.16655 71.9219 4.95697C71.9219 6.45325 72.7183 7.77293 73.9297 8.54653C73.1899 8.52443 72.4939 8.33037 71.8854 8.00715C71.8845 8.02532 71.8845 8.04324 71.8845 8.06127C71.8845 10.151 73.4404 11.8935 75.5049 12.2899C75.1265 12.3885 74.7279 12.4406 74.3162 12.4406C74.0251 12.4406 73.7429 12.4143 73.4668 12.3637C74.0415 14.0768 75.708 15.3238 77.6833 15.3587C76.1374 16.5155 74.1917 17.2045 72.077 17.2045C71.7129 17.2045 71.3534 17.184 71 17.1444C72.9982 18.3679 75.3702 19.0815 77.9193 19.0815C86.2207 19.0815 90.7597 12.5109 90.7597 6.81191C90.7597 6.62503 90.7552 6.43943 90.747 6.2545C91.6285 5.64602 92.3936 4.88673 92.999 4.02178" fill="#5C5C50"/>
</svg>
