<svg width="55" height="13" viewBox="0 0 55 13" fill="none" xmlns="http://www.w3.org/2000/svg">
<path d="M48.6904 2.5H51.6428C52.8789 2.5 53.8809 3.50203 53.8809 4.7381C53.8809 5.97417 52.8789 6.9762 51.6428 6.9762H48.6904V2.5Z" stroke="#444240"/>
<path d="M48.5385 7H47" stroke="#444240"/>
<path d="M48.5387 2V12M47.2383 9.45747H52.2383" stroke="#444240"/>
<path d="M3.948 12.24C2.772 12.24 1.94 11.788 1.452 10.884C0.964 9.98 0.72 8.712 0.72 7.08C0.72 5.464 1.032 4.24 1.656 3.408C2.288 2.576 3.156 2.16 4.26 2.16C4.756 2.16 5.2 2.232 5.592 2.376C5.992 2.512 6.304 2.704 6.528 2.952C6.76 3.2 6.876 3.476 6.876 3.78C6.876 4.052 6.788 4.284 6.612 4.476C6.444 4.66 6.232 4.752 5.976 4.752C5.76 4.752 5.58 4.692 5.436 4.572C5.292 4.452 5.22 4.288 5.22 4.08C5.34 3.984 5.424 3.888 5.472 3.792C5.528 3.696 5.556 3.58 5.556 3.444C5.556 3.148 5.436 2.9 5.196 2.7C4.956 2.5 4.644 2.4 4.26 2.4C3.644 2.4 3.148 2.648 2.772 3.144C2.404 3.64 2.216 4.452 2.208 5.58L2.196 6.924C2.436 6.636 2.728 6.416 3.072 6.264C3.416 6.104 3.776 6.024 4.152 6.024C4.744 6.024 5.268 6.144 5.724 6.384C6.18 6.624 6.536 6.972 6.792 7.428C7.048 7.884 7.176 8.432 7.176 9.072C7.176 9.728 7.028 10.296 6.732 10.776C6.444 11.248 6.052 11.612 5.556 11.868C5.068 12.116 4.532 12.24 3.948 12.24ZM3.948 11.976C4.524 11.976 4.964 11.772 5.268 11.364C5.58 10.956 5.736 10.392 5.736 9.672V8.496C5.736 7.8 5.596 7.264 5.316 6.888C5.044 6.504 4.628 6.312 4.068 6.312C3.676 6.312 3.312 6.42 2.976 6.636C2.64 6.844 2.38 7.132 2.196 7.5L2.184 9.168C2.176 10.072 2.316 10.768 2.604 11.256C2.9 11.736 3.348 11.976 3.948 11.976ZM10.805 12.24C10.309 12.24 9.85297 12.144 9.43697 11.952C9.02897 11.76 8.70497 11.5 8.46497 11.172C8.22497 10.844 8.10497 10.476 8.10497 10.068C8.10497 9.74 8.19697 9.484 8.38097 9.3C8.56497 9.108 8.78497 9.012 9.04097 9.012C9.28097 9.012 9.48897 9.088 9.66497 9.24C9.84097 9.392 9.92897 9.612 9.92897 9.9C9.50497 10.108 9.29297 10.428 9.29297 10.86C9.29297 11.188 9.42897 11.456 9.70097 11.664C9.98097 11.864 10.349 11.964 10.805 11.964C11.405 11.964 11.877 11.708 12.221 11.196C12.573 10.684 12.749 10.02 12.749 9.204C12.749 8.26 12.541 7.552 12.125 7.08C11.717 6.6 11.173 6.36 10.493 6.36C10.133 6.36 9.74097 6.428 9.31697 6.564L9.10097 6.408L9.62897 2.4H12.809C13.289 2.4 13.637 2.364 13.853 2.292C14.077 2.212 14.229 2.032 14.309 1.752L14.585 1.764C14.521 2.54 14.325 3.076 13.997 3.372C13.677 3.66 13.221 3.804 12.629 3.804H9.76097L9.44897 6.192C9.84897 6.08 10.269 6.024 10.709 6.024C11.421 6.024 12.057 6.164 12.617 6.444C13.185 6.724 13.625 7.108 13.937 7.596C14.249 8.084 14.405 8.624 14.405 9.216C14.405 9.72 14.277 10.204 14.021 10.668C13.765 11.124 13.365 11.5 12.821 11.796C12.285 12.092 11.613 12.24 10.805 12.24ZM21.1454 12.24C20.6494 12.24 20.1934 12.144 19.7774 11.952C19.3694 11.76 19.0454 11.5 18.8054 11.172C18.5654 10.844 18.4454 10.476 18.4454 10.068C18.4454 9.74 18.5374 9.484 18.7214 9.3C18.9054 9.108 19.1254 9.012 19.3814 9.012C19.6214 9.012 19.8294 9.088 20.0054 9.24C20.1814 9.392 20.2694 9.612 20.2694 9.9C19.8454 10.108 19.6334 10.428 19.6334 10.86C19.6334 11.188 19.7694 11.456 20.0414 11.664C20.3214 11.864 20.6894 11.964 21.1454 11.964C21.7214 11.964 22.1894 11.748 22.5494 11.316C22.9094 10.884 23.0894 10.28 23.0894 9.504C23.0894 8.664 22.8494 8.016 22.3694 7.56C21.8894 7.096 21.1814 6.836 20.2454 6.78V6.516C21.0854 6.468 21.7374 6.244 22.2014 5.844C22.6734 5.436 22.9094 4.888 22.9094 4.2C22.9094 3.664 22.7614 3.236 22.4654 2.916C22.1774 2.596 21.7894 2.436 21.3014 2.436C20.8614 2.436 20.5134 2.512 20.2574 2.664C20.0094 2.808 19.8854 3.012 19.8854 3.276C19.8854 3.7 20.0854 4.004 20.4854 4.188C20.4854 4.46 20.4014 4.672 20.2334 4.824C20.0734 4.968 19.8774 5.04 19.6454 5.04C19.4054 5.04 19.1974 4.948 19.0214 4.764C18.8454 4.58 18.7574 4.336 18.7574 4.032C18.7574 3.672 18.8814 3.352 19.1294 3.072C19.3774 2.784 19.7054 2.56 20.1134 2.4C20.5294 2.24 20.9694 2.16 21.4334 2.16C22.3454 2.16 23.0574 2.344 23.5694 2.712C24.0814 3.08 24.3374 3.596 24.3374 4.26C24.3374 4.956 24.0854 5.496 23.5814 5.88C23.0854 6.256 22.3614 6.508 21.4094 6.636V6.672C22.4094 6.72 23.2134 6.988 23.8214 7.476C24.4374 7.956 24.7454 8.632 24.7454 9.504C24.7454 9.992 24.6094 10.444 24.3374 10.86C24.0734 11.276 23.6694 11.612 23.1254 11.868C22.5894 12.116 21.9294 12.24 21.1454 12.24ZM29.5588 12.24C28.8628 12.24 28.2548 12.052 27.7348 11.676C27.2148 11.3 26.8108 10.736 26.5228 9.984C26.2348 9.224 26.0908 8.296 26.0908 7.2C26.0908 6.104 26.2348 5.18 26.5228 4.428C26.8108 3.668 27.2148 3.1 27.7348 2.724C28.2548 2.348 28.8628 2.16 29.5588 2.16C30.2548 2.16 30.8628 2.348 31.3828 2.724C31.9028 3.1 32.3068 3.668 32.5948 4.428C32.8828 5.18 33.0268 6.104 33.0268 7.2C33.0268 8.296 32.8828 9.224 32.5948 9.984C32.3068 10.736 31.9028 11.3 31.3828 11.676C30.8628 12.052 30.2548 12.24 29.5588 12.24ZM29.5588 11.964C30.1588 11.964 30.6308 11.672 30.9748 11.088C31.3188 10.504 31.4908 9.592 31.4908 8.352V6.036C31.4908 4.804 31.3188 3.896 30.9748 3.312C30.6308 2.728 30.1588 2.436 29.5588 2.436C28.9588 2.436 28.4868 2.728 28.1428 3.312C27.7988 3.896 27.6268 4.804 27.6268 6.036V8.352C27.6268 9.584 27.7988 10.496 28.1428 11.088C28.4868 11.672 28.9588 11.964 29.5588 11.964ZM37.9143 12.24C37.2183 12.24 36.6103 12.052 36.0903 11.676C35.5703 11.3 35.1663 10.736 34.8783 9.984C34.5903 9.224 34.4463 8.296 34.4463 7.2C34.4463 6.104 34.5903 5.18 34.8783 4.428C35.1663 3.668 35.5703 3.1 36.0903 2.724C36.6103 2.348 37.2183 2.16 37.9143 2.16C38.6103 2.16 39.2183 2.348 39.7383 2.724C40.2583 3.1 40.6623 3.668 40.9503 4.428C41.2383 5.18 41.3823 6.104 41.3823 7.2C41.3823 8.296 41.2383 9.224 40.9503 9.984C40.6623 10.736 40.2583 11.3 39.7383 11.676C39.2183 12.052 38.6103 12.24 37.9143 12.24ZM37.9143 11.964C38.5143 11.964 38.9863 11.672 39.3303 11.088C39.6743 10.504 39.8463 9.592 39.8463 8.352V6.036C39.8463 4.804 39.6743 3.896 39.3303 3.312C38.9863 2.728 38.5143 2.436 37.9143 2.436C37.3143 2.436 36.8423 2.728 36.4983 3.312C36.1543 3.896 35.9823 4.804 35.9823 6.036V8.352C35.9823 9.584 36.1543 10.496 36.4983 11.088C36.8423 11.672 37.3143 11.964 37.9143 11.964Z" fill="#1B1A17" fill-opacity="0.82"/>
</svg>
