<svg width="57" height="13" viewBox="0 0 57 13" fill="none" xmlns="http://www.w3.org/2000/svg">
<path d="M50.6904 2.5H53.6428C54.8789 2.5 55.8809 3.50203 55.8809 4.7381C55.8809 5.97417 54.8789 6.9762 53.6428 6.9762H50.6904V2.5Z" stroke="#444240"/>
<path d="M50.5387 2V12M49.2383 9.45747H54.2383" stroke="#444240"/>
<path d="M1.692 12C1.748 11.408 1.86 10.848 2.028 10.32C2.204 9.792 2.4 9.312 2.616 8.88C2.84 8.448 3.132 7.912 3.492 7.272C3.916 6.528 4.256 5.896 4.512 5.376C4.768 4.848 4.984 4.272 5.16 3.648H1.14L0.816 5.076H0.504V2.4H5.772C5.676 3.224 5.528 4 5.328 4.728C5.128 5.448 4.856 6.32 4.512 7.344C4.168 8.328 3.9 9.164 3.708 9.852C3.524 10.532 3.4 11.248 3.336 12H1.692ZM6.456 11.076L8.988 8.496C9.652 7.808 10.156 7.14 10.5 6.492C10.852 5.836 11.028 5.16 11.028 4.464C11.028 3.76 10.876 3.248 10.572 2.928C10.276 2.6 9.872 2.436 9.36 2.436C8.96 2.436 8.612 2.544 8.316 2.76C8.02 2.976 7.872 3.26 7.872 3.612C7.872 4.036 8.084 4.352 8.508 4.56C8.508 4.848 8.42 5.068 8.244 5.22C8.068 5.372 7.86 5.448 7.62 5.448C7.364 5.448 7.144 5.356 6.96 5.172C6.776 4.98 6.684 4.72 6.684 4.392C6.684 3.96 6.816 3.576 7.08 3.24C7.344 2.896 7.696 2.632 8.136 2.448C8.576 2.256 9.048 2.16 9.552 2.16C10.528 2.16 11.252 2.392 11.724 2.856C12.196 3.312 12.432 3.916 12.432 4.668C12.432 5.124 12.336 5.544 12.144 5.928C11.96 6.304 11.736 6.632 11.472 6.912C11.216 7.192 10.864 7.528 10.416 7.92L10.08 8.208L7.212 10.74H11.688L12.18 8.964H12.492V12H6.456V11.076ZM17.9225 12C17.9785 11.408 18.0905 10.848 18.2585 10.32C18.4345 9.792 18.6305 9.312 18.8465 8.88C19.0705 8.448 19.3625 7.912 19.7225 7.272C20.1465 6.528 20.4865 5.896 20.7425 5.376C20.9985 4.848 21.2145 4.272 21.3905 3.648H17.3705L17.0465 5.076H16.7345V2.4H22.0025C21.9065 3.224 21.7585 4 21.5585 4.728C21.3585 5.448 21.0865 6.32 20.7425 7.344C20.3985 8.328 20.1305 9.164 19.9385 9.852C19.7545 10.532 19.6305 11.248 19.5665 12H17.9225ZM26.4065 12.24C25.7105 12.24 25.1025 12.052 24.5825 11.676C24.0625 11.3 23.6585 10.736 23.3705 9.984C23.0825 9.224 22.9385 8.296 22.9385 7.2C22.9385 6.104 23.0825 5.18 23.3705 4.428C23.6585 3.668 24.0625 3.1 24.5825 2.724C25.1025 2.348 25.7105 2.16 26.4065 2.16C27.1025 2.16 27.7105 2.348 28.2305 2.724C28.7505 3.1 29.1545 3.668 29.4425 4.428C29.7305 5.18 29.8745 6.104 29.8745 7.2C29.8745 8.296 29.7305 9.224 29.4425 9.984C29.1545 10.736 28.7505 11.3 28.2305 11.676C27.7105 12.052 27.1025 12.24 26.4065 12.24ZM26.4065 11.964C27.0065 11.964 27.4785 11.672 27.8225 11.088C28.1665 10.504 28.3385 9.592 28.3385 8.352V6.036C28.3385 4.804 28.1665 3.896 27.8225 3.312C27.4785 2.728 27.0065 2.436 26.4065 2.436C25.8065 2.436 25.3345 2.728 24.9905 3.312C24.6465 3.896 24.4745 4.804 24.4745 6.036V8.352C24.4745 9.584 24.6465 10.496 24.9905 11.088C25.3345 11.672 25.8065 11.964 26.4065 11.964ZM34.7619 12.24C34.0659 12.24 33.4579 12.052 32.9379 11.676C32.4179 11.3 32.0139 10.736 31.7259 9.984C31.4379 9.224 31.2939 8.296 31.2939 7.2C31.2939 6.104 31.4379 5.18 31.7259 4.428C32.0139 3.668 32.4179 3.1 32.9379 2.724C33.4579 2.348 34.0659 2.16 34.7619 2.16C35.4579 2.16 36.0659 2.348 36.5859 2.724C37.1059 3.1 37.5099 3.668 37.7979 4.428C38.0859 5.18 38.2299 6.104 38.2299 7.2C38.2299 8.296 38.0859 9.224 37.7979 9.984C37.5099 10.736 37.1059 11.3 36.5859 11.676C36.0659 12.052 35.4579 12.24 34.7619 12.24ZM34.7619 11.964C35.3619 11.964 35.8339 11.672 36.1779 11.088C36.5219 10.504 36.6939 9.592 36.6939 8.352V6.036C36.6939 4.804 36.5219 3.896 36.1779 3.312C35.8339 2.728 35.3619 2.436 34.7619 2.436C34.1619 2.436 33.6899 2.728 33.3459 3.312C33.0019 3.896 32.8299 4.804 32.8299 6.036V8.352C32.8299 9.584 33.0019 10.496 33.3459 11.088C33.6899 11.672 34.1619 11.964 34.7619 11.964Z" fill="#1B1A17" fill-opacity="0.82"/>
</svg>
