<svg width="53" height="13" viewBox="0 0 53 13" fill="none" xmlns="http://www.w3.org/2000/svg">
<path d="M46.6904 2.5H49.6428C50.8789 2.5 51.8809 3.50203 51.8809 4.7381C51.8809 5.97417 50.8789 6.9762 49.6428 6.9762H46.6904V2.5Z" stroke="#444240"/>
<path d="M46.5387 2V12M45.2383 9.45747H50.2383" stroke="#444240"/>
<path d="M3.924 12.24C2.892 12.24 2.088 12.024 1.512 11.592C0.936 11.16 0.648 10.544 0.648 9.744C0.648 9.024 0.852 8.444 1.26 8.004C1.668 7.564 2.208 7.172 2.88 6.828L2.328 6.468C1.912 6.18 1.588 5.868 1.356 5.532C1.132 5.188 1.02 4.828 1.02 4.452C1.02 3.988 1.152 3.584 1.416 3.24C1.688 2.896 2.048 2.632 2.496 2.448C2.944 2.256 3.428 2.16 3.948 2.16C4.396 2.16 4.824 2.236 5.232 2.388C5.648 2.54 5.984 2.768 6.24 3.072C6.504 3.376 6.636 3.744 6.636 4.176C6.636 4.56 6.556 4.896 6.396 5.184C6.236 5.464 6.036 5.704 5.796 5.904C5.556 6.096 5.256 6.296 4.896 6.504L5.208 6.696C5.824 7.088 6.304 7.492 6.648 7.908C7 8.316 7.176 8.824 7.176 9.432C7.176 10.032 7.02 10.544 6.708 10.968C6.396 11.392 5.992 11.712 5.496 11.928C5 12.136 4.476 12.24 3.924 12.24ZM4.56 6.3C4.944 6.02 5.204 5.704 5.34 5.352C5.476 4.992 5.544 4.612 5.544 4.212C5.544 3.684 5.384 3.256 5.064 2.928C4.744 2.6 4.324 2.436 3.804 2.436C3.508 2.436 3.228 2.496 2.964 2.616C2.7 2.728 2.488 2.888 2.328 3.096C2.168 3.304 2.088 3.54 2.088 3.804C2.088 4.14 2.188 4.44 2.388 4.704C2.588 4.968 2.888 5.232 3.288 5.496L4.56 6.3ZM3.864 11.964C4.296 11.964 4.676 11.88 5.004 11.712C5.34 11.544 5.596 11.32 5.772 11.04C5.948 10.76 6.036 10.46 6.036 10.14C6.036 9.724 5.912 9.336 5.664 8.976C5.424 8.616 5.048 8.256 4.536 7.896L3.228 7.056C2.78 7.384 2.44 7.792 2.208 8.28C1.984 8.768 1.872 9.28 1.872 9.816C1.872 10.432 2.032 10.944 2.352 11.352C2.68 11.76 3.184 11.964 3.864 11.964ZM8.44125 12V11.76L9.28125 11.64V2.76L8.44125 2.64V2.4H10.4813V11.64L11.3213 11.76V12H8.44125ZM16.4811 12C16.5371 11.408 16.6491 10.848 16.8171 10.32C16.9931 9.792 17.1891 9.312 17.4051 8.88C17.6291 8.448 17.9211 7.912 18.2811 7.272C18.7051 6.528 19.0451 5.896 19.3011 5.376C19.5571 4.848 19.7731 4.272 19.9491 3.648H15.9291L15.6051 5.076H15.2931V2.4H20.5611C20.4651 3.224 20.3171 4 20.1171 4.728C19.9171 5.448 19.6451 6.32 19.3011 7.344C18.9571 8.328 18.6891 9.164 18.4971 9.852C18.3131 10.532 18.1891 11.248 18.1251 12H16.4811ZM24.9651 12.24C24.2691 12.24 23.6611 12.052 23.1411 11.676C22.6211 11.3 22.2171 10.736 21.9291 9.984C21.6411 9.224 21.4971 8.296 21.4971 7.2C21.4971 6.104 21.6411 5.18 21.9291 4.428C22.2171 3.668 22.6211 3.1 23.1411 2.724C23.6611 2.348 24.2691 2.16 24.9651 2.16C25.6611 2.16 26.2691 2.348 26.7891 2.724C27.3091 3.1 27.7131 3.668 28.0011 4.428C28.2891 5.18 28.4331 6.104 28.4331 7.2C28.4331 8.296 28.2891 9.224 28.0011 9.984C27.7131 10.736 27.3091 11.3 26.7891 11.676C26.2691 12.052 25.6611 12.24 24.9651 12.24ZM24.9651 11.964C25.5651 11.964 26.0371 11.672 26.3811 11.088C26.7251 10.504 26.8971 9.592 26.8971 8.352V6.036C26.8971 4.804 26.7251 3.896 26.3811 3.312C26.0371 2.728 25.5651 2.436 24.9651 2.436C24.3651 2.436 23.8931 2.728 23.5491 3.312C23.2051 3.896 23.0331 4.804 23.0331 6.036V8.352C23.0331 9.584 23.2051 10.496 23.5491 11.088C23.8931 11.672 24.3651 11.964 24.9651 11.964ZM33.3205 12.24C32.6245 12.24 32.0165 12.052 31.4965 11.676C30.9765 11.3 30.5725 10.736 30.2845 9.984C29.9965 9.224 29.8525 8.296 29.8525 7.2C29.8525 6.104 29.9965 5.18 30.2845 4.428C30.5725 3.668 30.9765 3.1 31.4965 2.724C32.0165 2.348 32.6245 2.16 33.3205 2.16C34.0165 2.16 34.6245 2.348 35.1445 2.724C35.6645 3.1 36.0685 3.668 36.3565 4.428C36.6445 5.18 36.7885 6.104 36.7885 7.2C36.7885 8.296 36.6445 9.224 36.3565 9.984C36.0685 10.736 35.6645 11.3 35.1445 11.676C34.6245 12.052 34.0165 12.24 33.3205 12.24ZM33.3205 11.964C33.9205 11.964 34.3925 11.672 34.7365 11.088C35.0805 10.504 35.2525 9.592 35.2525 8.352V6.036C35.2525 4.804 35.0805 3.896 34.7365 3.312C34.3925 2.728 33.9205 2.436 33.3205 2.436C32.7205 2.436 32.2485 2.728 31.9045 3.312C31.5605 3.896 31.3885 4.804 31.3885 6.036V8.352C31.3885 9.584 31.5605 10.496 31.9045 11.088C32.2485 11.672 32.7205 11.964 33.3205 11.964Z" fill="#1B1A17" fill-opacity="0.82"/>
</svg>
